<?xml version="1.0" encoding="UTF-8" standalone="no"?>
<!-- Generator: Adobe Illustrator 19.0.0, SVG Export Plug-In . SVG Version: 6.00 Build 0)  -->

<svg
   xmlns:dc="http://purl.org/dc/elements/1.1/"
   xmlns:cc="http://creativecommons.org/ns#"
   xmlns:rdf="http://www.w3.org/1999/02/22-rdf-syntax-ns#"
   xmlns:svg="http://www.w3.org/2000/svg"
   xmlns="http://www.w3.org/2000/svg"
   xmlns:sodipodi="http://sodipodi.sourceforge.net/DTD/sodipodi-0.dtd"
   xmlns:inkscape="http://www.inkscape.org/namespaces/inkscape"
   version="1.1"
   id="Layer_1"
   x="0px"
   y="0px"
   viewBox="0 0 210.414 210.414"
   style="enable-background:new 0 0 210.414 210.414;"
   xml:space="preserve"
   inkscape:version="0.91 r13725"
   sodipodi:docname="mouse.svg"><metadata
     id="metadata47"><rdf:RDF><cc:Work
         rdf:about=""><dc:format>image/svg+xml</dc:format><dc:type
           rdf:resource="http://purl.org/dc/dcmitype/StillImage" /></cc:Work></rdf:RDF></metadata><defs
     id="defs45" /><sodipodi:namedview
     pagecolor="#ffffff"
     bordercolor="#666666"
     borderopacity="1"
     objecttolerance="10"
     gridtolerance="10"
     guidetolerance="10"
     inkscape:pageopacity="0"
     inkscape:pageshadow="2"
     inkscape:window-width="1440"
     inkscape:window-height="837"
     id="namedview43"
     showgrid="false"
     inkscape:zoom="1.1215984"
     inkscape:cx="-26.747543"
     inkscape:cy="105.207"
     inkscape:window-x="-8"
     inkscape:window-y="-8"
     inkscape:window-maximized="1"
     inkscape:current-layer="g7" /><g
     id="g3"><g
       id="g5"><g
         id="g7"><path
           d="M105.207,0C66.532,0,35.069,31.45,35.069,70.104v70.21c0,38.653,31.463,70.1,70.138,70.1     c38.675,0,70.138-31.446,70.138-70.1v-70.21C175.345,31.45,143.881,0,105.207,0z M167.552,140.314     c0,34.357-27.968,62.307-62.345,62.307c-34.377,0-62.345-27.95-62.345-62.307v-70.21c0-34.357,27.968-62.311,62.345-62.311     c34.377,0,62.345,27.953,62.345,62.311V140.314z"
           id="path9"
           style="fill:#f87be5;fill-opacity:1" /><path
           d="M105.207,23.379c-2.152,0-3.897,1.743-3.897,3.897v35.286c0,2.154,1.745,3.897,3.897,3.897     c2.152,0,3.897-1.743,3.897-3.897V27.276C109.103,25.122,107.359,23.379,105.207,23.379z"
           id="path11"
           style="fill:#f87be5;fill-opacity:1" /></g></g></g><g
     id="g13" /><g
     id="g15" /><g
     id="g17" /><g
     id="g19" /><g
     id="g21" /><g
     id="g23" /><g
     id="g25" /><g
     id="g27" /><g
     id="g29" /><g
     id="g31" /><g
     id="g33" /><g
     id="g35" /><g
     id="g37" /><g
     id="g39" /><g
     id="g41" /></svg>